<svg width="24" height="24" viewBox="0 0 24 24" fill="none" xmlns="http://www.w3.org/2000/svg">
<path fill-rule="evenodd" clip-rule="evenodd" d="M12 2C15.0387 2 17.5 4.46125 17.5 7.5C17.5 10.5387 15.0387 13 12 13C8.96125 13 6.5 10.5387 6.5 7.5C6.5 4.46125 8.96125 2 12 2ZM12 4C10.0658 4 8.5 5.56582 8.5 7.5C8.5 9.43418 10.0658 11 12 11C13.9342 11 15.5 9.43418 15.5 7.5C15.5 5.56582 13.9342 4 12 4ZM21.993 19.1345C21.7498 15.7199 15.2745 14 12 14L11.8076 14.0019C8.41346 14.068 2 15.8536 2 19.3333V20.6667L2.00648 20.8025C2.0708 21.4727 2.60547 22 3.25 22H20.75L20.8773 21.9931C21.5056 21.9245 22 21.3542 22 20.6667V19.3333L21.993 19.1345ZM4.00648 19.2362C4.19579 17.8034 8.49416 16 12 16L12.2402 16.0028C15.7795 16.0836 20 17.9185 20 19.3333V20H4V19.3333L4.00648 19.2362Z" fill="white"/>
</svg>
